<?xml version="1.0" standalone="no"?>
<!DOCTYPE svg PUBLIC "-//W3C//DTD SVG 20010904//EN"
 "http://www.w3.org/TR/2001/REC-SVG-20010904/DTD/svg10.dtd">
<svg version="1.0" xmlns="http://www.w3.org/2000/svg"
 width="256.000000pt" height="256.000000pt" viewBox="0 0 256.000000 256.000000"
 preserveAspectRatio="xMidYMid meet">
<metadata>
Created by potrace 1.11, written by Peter Selinger 2001-2013
</metadata>
<g transform="translate(0.000000,256.000000) scale(0.100000,-0.100000)"
fill="#000000" stroke="none">
<path d="M0 1280 l0 -1280 1280 0 1280 0 0 1280 0 1280 -1280 0 -1280 0 0
-1280z m808 268 l272 -273 -272 -272 -273 -273 -205 0 -205 0 268 268 c147
147 267 272 267 277 0 5 -120 130 -267 277 l-268 268 206 0 205 0 272 -272z
m684 -2 l267 -271 -270 -272 -270 -273 -200 0 c-109 0 -199 2 -199 5 0 3 119
126 265 273 l265 267 -273 273 -272 272 210 -2 210 -1 267 -271z m683 4 c148
-148 267 -271 265 -274 -3 -3 -126 -127 -273 -275 l-269 -271 -199 0 c-109 0
-199 3 -199 7 0 5 120 128 267 275 l268 268 -265 265 c-146 146 -267 268 -269
271 -2 2 88 4 200 4 l204 0 270 -270z"/>
</g>
</svg>
